<svg id="visual" viewBox="0 0 900 600" width="900" height="600" xmlns="http://www.w3.org/2000/svg" xmlns:xlink="http://www.w3.org/1999/xlink" version="1.1"><path d="M0 519L21.5 507.8C43 496.7 86 474.3 128.8 475.8C171.7 477.3 214.3 502.7 257.2 514C300 525.3 343 522.7 385.8 521.3C428.7 520 471.3 520 514.2 512.7C557 505.3 600 490.7 642.8 486.7C685.7 482.7 728.3 489.3 771.2 486.5C814 483.7 857 471.3 878.5 465.2L900 459L900 601L878.5 601C857 601 814 601 771.2 601C728.3 601 685.7 601 642.8 601C600 601 557 601 514.2 601C471.3 601 428.7 601 385.8 601C343 601 300 601 257.2 601C214.3 601 171.7 601 128.8 601C86 601 43 601 21.5 601L0 601Z" fill="#393939"></path><path d="M0 481L21.5 488.5C43 496 86 511 128.8 512.3C171.7 513.7 214.3 501.3 257.2 503.7C300 506 343 523 385.8 520.2C428.7 517.3 471.3 494.7 514.2 485.2C557 475.7 600 479.3 642.8 487.7C685.7 496 728.3 509 771.2 511.8C814 514.7 857 507.3 878.5 503.7L900 500L900 601L878.5 601C857 601 814 601 771.2 601C728.3 601 685.7 601 642.8 601C600 601 557 601 514.2 601C471.3 601 428.7 601 385.8 601C343 601 300 601 257.2 601C214.3 601 171.7 601 128.8 601C86 601 43 601 21.5 601L0 601Z" fill="#766e54"></path><path d="M0 515L21.5 517.8C43 520.7 86 526.3 128.8 526.3C171.7 526.3 214.3 520.7 257.2 524.7C300 528.7 343 542.3 385.8 550.8C428.7 559.3 471.3 562.7 514.2 561.8C557 561 600 556 642.8 556.5C685.7 557 728.3 563 771.2 563.3C814 563.7 857 558.3 878.5 555.7L900 553L900 601L878.5 601C857 601 814 601 771.2 601C728.3 601 685.7 601 642.8 601C600 601 557 601 514.2 601C471.3 601 428.7 601 385.8 601C343 601 300 601 257.2 601C214.3 601 171.7 601 128.8 601C86 601 43 601 21.5 601L0 601Z" fill="#b7a86f"></path><path d="M0 578L21.5 578.5C43 579 86 580 128.8 580.3C171.7 580.7 214.3 580.3 257.2 579.3C300 578.3 343 576.7 385.8 571.3C428.7 566 471.3 557 514.2 555.3C557 553.7 600 559.3 642.8 561.2C685.7 563 728.3 561 771.2 564.2C814 567.3 857 575.7 878.5 579.8L900 584L900 601L878.5 601C857 601 814 601 771.2 601C728.3 601 685.7 601 642.8 601C600 601 557 601 514.2 601C471.3 601 428.7 601 385.8 601C343 601 300 601 257.2 601C214.3 601 171.7 601 128.8 601C86 601 43 601 21.5 601L0 601Z" fill="#fde68a"></path></svg>